<?xml version="1.0" standalone="no"?>
<!DOCTYPE svg PUBLIC "-//W3C//DTD SVG 20010904//EN"
 "http://www.w3.org/TR/2001/REC-SVG-20010904/DTD/svg10.dtd">
<svg version="1.0" xmlns="http://www.w3.org/2000/svg"
 width="1024.000000pt" height="1024.000000pt" viewBox="0 0 1024.000000 1024.000000"
 preserveAspectRatio="xMidYMid meet">

<g transform="translate(0.000000,1024.000000) scale(0.100000,-0.100000)"
fill="#000000" stroke="none">
<path d="M4260 8918 c-44 -23 -87 -73 -95 -112 -2 -12 -59 -428 -125 -926 -67
-498 -124 -922 -127 -943 l-6 -38 107 55 c198 102 390 167 614 208 157 29 524
31 677 5 227 -40 425 -105 623 -206 64 -33 117 -59 118 -58 0 1 -16 128 -38
282 -79 582 -178 1315 -193 1445 -21 175 -31 212 -69 251 -59 61 -33 59 -769
59 l-673 0 -44 -22z"/>
<path d="M4750 7059 c-357 -40 -725 -196 -1010 -426 -102 -83 -263 -250 -339
-353 -187 -252 -314 -554 -367 -876 -27 -158 -25 -467 4 -624 56 -306 174
-588 348 -831 72 -101 251 -289 353 -371 353 -285 787 -438 1241 -438 318 0
594 67 888 214 143 72 223 123 348 224 414 333 683 843 721 1365 5 76 8 87 24
87 15 0 19 -8 19 -38 0 -73 63 -142 130 -142 40 0 93 34 112 71 25 48 26 314
2 364 -30 65 -98 88 -167 57 -49 -22 -77 -67 -77 -126 0 -29 -4 -36 -20 -36
-17 0 -20 7 -20 48 0 26 -7 94 -15 151 -139 976 -976 1699 -1958 1690 -78 -1
-176 -5 -217 -10z m280 -622 c13 -7 35 -28 47 -46 l23 -34 0 -511 0 -511 30
-17 c16 -9 42 -35 57 -57 l28 -40 362 -1 361 0 30 -30 c56 -55 50 -138 -11
-182 -32 -23 -36 -23 -385 -26 l-354 -3 -52 -54 c-42 -42 -65 -57 -111 -70
-103 -30 -198 -4 -269 75 -50 56 -67 100 -68 175 -2 79 26 139 93 199 l49 44
0 507 c0 432 2 510 15 535 27 53 100 75 155 47z"/>
<path d="M3914 3273 c3 -21 60 -445 126 -943 67 -498 123 -914 125 -926 8 -36
50 -88 90 -111 l40 -23 679 0 c670 0 680 0 723 21 63 31 88 80 107 214 16 111
106 785 192 1433 25 194 45 355 42 357 -2 2 -60 -24 -129 -58 -272 -136 -549
-204 -869 -214 -376 -11 -718 67 -1038 238 l-94 50 6 -38z"/>
</g>
</svg>
